<?xml version="1.0" encoding="UTF-8" standalone="no"?>
<!DOCTYPE svg PUBLIC "-//W3C//DTD SVG 1.1//EN"
 "http://www.w3.org/Graphics/SVG/1.1/DTD/svg11.dtd">
<!-- Generated by graphviz version 12.2.1 (0)
 -->
<!-- Title: algo_base.h Pages: 1 -->
<svg width="421pt" height="193pt"
 viewBox="0.00 0.00 421.00 193.00" xmlns="http://www.w3.org/2000/svg" xmlns:xlink="http://www.w3.org/1999/xlink">
<g id="graph0" class="graph" transform="scale(1 1) rotate(0) translate(4 189)">
<title>algo_base.h</title>
<!-- Node1 -->
<g id="Node000001" class="node">
<title>Node1</title>
<g id="a_Node000001"><a xlink:title=" ">
<polygon fill="#999999" stroke="#666666" points="180.62,-185 112.88,-185 112.88,-165.75 180.62,-165.75 180.62,-185"/>
<text text-anchor="middle" x="146.75" y="-171.5" font-family="Helvetica,sans-Serif" font-size="10.00">algo_base.h</text>
</a>
</g>
</g>
<!-- Node2 -->
<g id="Node000002" class="node">
<title>Node2</title>
<g id="a_Node000002"><a xlink:title=" ">
<polygon fill="#e0e0e0" stroke="#999999" points="53.5,-129.75 0,-129.75 0,-110.5 53.5,-110.5 53.5,-129.75"/>
<text text-anchor="middle" x="26.75" y="-116.25" font-family="Helvetica,sans-Serif" font-size="10.00">compare</text>
</a>
</g>
</g>
<!-- Node1&#45;&gt;Node2 -->
<g id="edge1_Node000001_Node000002" class="edge">
<title>Node1&#45;&gt;Node2</title>
<g id="a_edge1_Node000001_Node000002"><a xlink:title=" ">
<path fill="none" stroke="#63b8ff" d="M126.39,-165.34C107.52,-156.97 79.16,-144.38 57.52,-134.78"/>
<polygon fill="#63b8ff" stroke="#63b8ff" points="59.15,-131.67 48.59,-130.82 56.31,-138.07 59.15,-131.67"/>
</a>
</g>
</g>
<!-- Node3 -->
<g id="Node000003" class="node">
<title>Node3</title>
<g id="a_Node000003"><a xlink:href="compare_8h.html" target="_top" xlink:title=" ">
<polygon fill="white" stroke="#666666" points="153.75,-129.75 71.75,-129.75 71.75,-110.5 153.75,-110.5 153.75,-129.75"/>
<text text-anchor="middle" x="112.75" y="-116.25" font-family="Helvetica,sans-Serif" font-size="10.00">utils/compare.h</text>
</a>
</g>
</g>
<!-- Node1&#45;&gt;Node3 -->
<g id="edge2_Node000001_Node000003" class="edge">
<title>Node1&#45;&gt;Node3</title>
<g id="a_edge2_Node000001_Node000003"><a xlink:title=" ">
<path fill="none" stroke="#63b8ff" d="M141.14,-165.58C136.63,-158.53 130.16,-148.4 124.54,-139.58"/>
<polygon fill="#63b8ff" stroke="#63b8ff" points="127.63,-137.93 119.3,-131.38 121.73,-141.7 127.63,-137.93"/>
</a>
</g>
</g>
<!-- Node4 -->
<g id="Node000004" class="node">
<title>Node4</title>
<g id="a_Node000004"><a xlink:href="concepts_8h.html" target="_top" xlink:title=" ">
<polygon fill="white" stroke="#666666" points="222.88,-74.5 138.62,-74.5 138.62,-55.25 222.88,-55.25 222.88,-74.5"/>
<text text-anchor="middle" x="180.75" y="-61" font-family="Helvetica,sans-Serif" font-size="10.00">utils/concepts.h</text>
</a>
</g>
</g>
<!-- Node1&#45;&gt;Node4 -->
<g id="edge3_Node000001_Node000004" class="edge">
<title>Node1&#45;&gt;Node4</title>
<g id="a_edge3_Node000001_Node000004"><a xlink:title=" ">
<path fill="none" stroke="#63b8ff" d="M150.12,-165.55C153.49,-156.59 158.74,-142.29 162.75,-129.75 167.43,-115.1 172.13,-98.36 175.55,-85.69"/>
<polygon fill="#63b8ff" stroke="#63b8ff" points="178.92,-86.64 178.11,-76.07 172.15,-84.84 178.92,-86.64"/>
</a>
</g>
</g>
<!-- Node6 -->
<g id="Node000006" class="node">
<title>Node6</title>
<g id="a_Node000006"><a xlink:href="iterators_8h.html" target="_top" xlink:title=" ">
<polygon fill="white" stroke="#666666" points="290.62,-129.75 210.88,-129.75 210.88,-110.5 290.62,-110.5 290.62,-129.75"/>
<text text-anchor="middle" x="250.75" y="-116.25" font-family="Helvetica,sans-Serif" font-size="10.00">utils/iterators.h</text>
</a>
</g>
</g>
<!-- Node1&#45;&gt;Node6 -->
<g id="edge5_Node000001_Node000006" class="edge">
<title>Node1&#45;&gt;Node6</title>
<g id="a_edge5_Node000001_Node000006"><a xlink:title=" ">
<path fill="none" stroke="#63b8ff" d="M164.39,-165.34C180.38,-157.16 204.21,-144.96 222.79,-135.44"/>
<polygon fill="#63b8ff" stroke="#63b8ff" points="224.37,-138.57 231.67,-130.89 221.18,-132.33 224.37,-138.57"/>
</a>
</g>
</g>
<!-- Node5 -->
<g id="Node000005" class="node">
<title>Node5</title>
<g id="a_Node000005"><a xlink:href="type__traits_8h.html" target="_top" xlink:title=" ">
<polygon fill="white" stroke="#666666" points="295.5,-19.25 206,-19.25 206,0 295.5,0 295.5,-19.25"/>
<text text-anchor="middle" x="250.75" y="-5.75" font-family="Helvetica,sans-Serif" font-size="10.00">utils/type_traits.h</text>
</a>
</g>
</g>
<!-- Node4&#45;&gt;Node5 -->
<g id="edge4_Node000004_Node000005" class="edge">
<title>Node4&#45;&gt;Node5</title>
<g id="a_edge4_Node000004_Node000005"><a xlink:title=" ">
<path fill="none" stroke="#63b8ff" d="M192.62,-54.84C202.84,-47.07 217.82,-35.67 230.01,-26.4"/>
<polygon fill="#63b8ff" stroke="#63b8ff" points="232.01,-29.28 237.85,-20.44 227.77,-23.71 232.01,-29.28"/>
</a>
</g>
</g>
<!-- Node6&#45;&gt;Node4 -->
<g id="edge7_Node000006_Node000004" class="edge">
<title>Node6&#45;&gt;Node4</title>
<g id="a_edge7_Node000006_Node000004"><a xlink:title=" ">
<path fill="none" stroke="#63b8ff" d="M238.88,-110.09C228.66,-102.32 213.68,-90.92 201.49,-81.65"/>
<polygon fill="#63b8ff" stroke="#63b8ff" points="203.73,-78.96 193.65,-75.69 199.49,-84.53 203.73,-78.96"/>
</a>
</g>
</g>
<!-- Node6&#45;&gt;Node5 -->
<g id="edge10_Node000006_Node000005" class="edge">
<title>Node6&#45;&gt;Node5</title>
<g id="a_edge10_Node000006_Node000005"><a xlink:title=" ">
<path fill="none" stroke="#63b8ff" d="M250.75,-110.25C250.75,-93 250.75,-54.58 250.75,-30.81"/>
<polygon fill="#63b8ff" stroke="#63b8ff" points="254.25,-31.14 250.75,-21.14 247.25,-31.14 254.25,-31.14"/>
</a>
</g>
</g>
<!-- Node7 -->
<g id="Node000007" class="node">
<title>Node7</title>
<g id="a_Node000007"><a xlink:title=" ">
<polygon fill="#e0e0e0" stroke="#999999" points="326.88,-74.5 278.62,-74.5 278.62,-55.25 326.88,-55.25 326.88,-74.5"/>
<text text-anchor="middle" x="302.75" y="-61" font-family="Helvetica,sans-Serif" font-size="10.00">cstddef</text>
</a>
</g>
</g>
<!-- Node6&#45;&gt;Node7 -->
<g id="edge6_Node000006_Node000007" class="edge">
<title>Node6&#45;&gt;Node7</title>
<g id="a_edge6_Node000006_Node000007"><a xlink:title=" ">
<path fill="none" stroke="#63b8ff" d="M259.34,-110.33C266.59,-102.9 277.2,-92.04 286.12,-82.91"/>
<polygon fill="#63b8ff" stroke="#63b8ff" points="288.44,-85.54 292.92,-75.94 283.43,-80.65 288.44,-85.54"/>
</a>
</g>
</g>
<!-- Node8 -->
<g id="Node000008" class="node">
<title>Node8</title>
<g id="a_Node000008"><a xlink:href="move_8h.html" target="_top" xlink:title=" ">
<polygon fill="white" stroke="#666666" points="413,-74.5 344.5,-74.5 344.5,-55.25 413,-55.25 413,-74.5"/>
<text text-anchor="middle" x="378.75" y="-61" font-family="Helvetica,sans-Serif" font-size="10.00">utils/move.h</text>
</a>
</g>
</g>
<!-- Node6&#45;&gt;Node8 -->
<g id="edge8_Node000006_Node000008" class="edge">
<title>Node6&#45;&gt;Node8</title>
<g id="a_edge8_Node000006_Node000008"><a xlink:title=" ">
<path fill="none" stroke="#63b8ff" d="M272.46,-110.09C292.78,-101.64 323.4,-88.9 346.56,-79.27"/>
<polygon fill="#63b8ff" stroke="#63b8ff" points="347.64,-82.61 355.53,-75.53 344.96,-76.14 347.64,-82.61"/>
</a>
</g>
</g>
<!-- Node8&#45;&gt;Node5 -->
<g id="edge9_Node000008_Node000005" class="edge">
<title>Node8&#45;&gt;Node5</title>
<g id="a_edge9_Node000008_Node000005"><a xlink:title=" ">
<path fill="none" stroke="#63b8ff" d="M357.04,-54.84C336.72,-46.39 306.1,-33.65 282.94,-24.02"/>
<polygon fill="#63b8ff" stroke="#63b8ff" points="284.54,-20.89 273.97,-20.28 281.86,-27.36 284.54,-20.89"/>
</a>
</g>
</g>
</g>
</svg>
