<?xml version="1.0" encoding="UTF-8" standalone="no"?>
<!DOCTYPE svg PUBLIC "-//W3C//DTD SVG 1.1//EN"
 "http://www.w3.org/Graphics/SVG/1.1/DTD/svg11.dtd">
<!-- Generated by graphviz version 12.2.1 (0)
 -->
<!-- Title: compare.h Pages: 1 -->
<svg width="144pt" height="138pt"
 viewBox="0.00 0.00 143.75 137.75" xmlns="http://www.w3.org/2000/svg" xmlns:xlink="http://www.w3.org/1999/xlink">
<g id="graph0" class="graph" transform="scale(1 1) rotate(0) translate(4 133.75)">
<title>compare.h</title>
<!-- Node1 -->
<g id="Node000001" class="node">
<title>Node1</title>
<g id="a_Node000001"><a xlink:title=" ">
<polygon fill="#999999" stroke="#666666" points="95,-129.75 34,-129.75 34,-110.5 95,-110.5 95,-129.75"/>
<text text-anchor="middle" x="64.5" y="-116.25" font-family="Helvetica,sans-Serif" font-size="10.00">compare.h</text>
</a>
</g>
</g>
<!-- Node2 -->
<g id="Node000002" class="node">
<title>Node2</title>
<g id="a_Node000002"><a xlink:href="algo__base_8h.html" target="_top" xlink:title=" ">
<polygon fill="white" stroke="#666666" points="129.38,-74.5 61.62,-74.5 61.62,-55.25 129.38,-55.25 129.38,-74.5"/>
<text text-anchor="middle" x="95.5" y="-61" font-family="Helvetica,sans-Serif" font-size="10.00">algo_base.h</text>
</a>
</g>
</g>
<!-- Node1&#45;&gt;Node2 -->
<g id="edge1_Node000001_Node000002" class="edge">
<title>Node1&#45;&gt;Node2</title>
<g id="a_edge1_Node000001_Node000002"><a xlink:title=" ">
<path fill="none" stroke="#63b8ff" d="M75.28,-100.62C80.35,-91.89 86.18,-81.89 90.27,-74.86"/>
<polygon fill="#63b8ff" stroke="#63b8ff" points="72.39,-98.62 70.38,-109.02 78.44,-102.14 72.39,-98.62"/>
</a>
</g>
</g>
<!-- Node3 -->
<g id="Node000003" class="node">
<title>Node3</title>
<g id="a_Node000003"><a xlink:href="linked__list_8h.html" target="_top" xlink:title=" ">
<polygon fill="white" stroke="#666666" points="67,-19.25 0,-19.25 0,0 67,0 67,-19.25"/>
<text text-anchor="middle" x="33.5" y="-5.75" font-family="Helvetica,sans-Serif" font-size="10.00">linked_list.h</text>
</a>
</g>
</g>
<!-- Node1&#45;&gt;Node3 -->
<g id="edge4_Node000001_Node000003" class="edge">
<title>Node1&#45;&gt;Node3</title>
<g id="a_edge4_Node000001_Node000003"><a xlink:title=" ">
<path fill="none" stroke="#63b8ff" d="M58.87,-99.43C52.11,-75.76 41.05,-37.05 36.07,-19.63"/>
<polygon fill="#63b8ff" stroke="#63b8ff" points="55.43,-100.14 61.55,-108.79 62.17,-98.21 55.43,-100.14"/>
</a>
</g>
</g>
<!-- Node2&#45;&gt;Node3 -->
<g id="edge2_Node000002_Node000003" class="edge">
<title>Node2&#45;&gt;Node3</title>
<g id="a_edge2_Node000002_Node000003"><a xlink:title=" ">
<path fill="none" stroke="#63b8ff" d="M76.3,-47.39C65.6,-38.19 52.69,-27.1 43.86,-19.52"/>
<polygon fill="#63b8ff" stroke="#63b8ff" points="73.97,-50 83.83,-53.86 78.53,-44.69 73.97,-50"/>
</a>
</g>
</g>
<!-- Node4 -->
<g id="Node000004" class="node">
<title>Node4</title>
<g id="a_Node000004"><a xlink:href="vector_8h.html" target="_top" xlink:title=" ">
<polygon fill="white" stroke="#666666" points="135.75,-19.25 85.25,-19.25 85.25,0 135.75,0 135.75,-19.25"/>
<text text-anchor="middle" x="110.5" y="-5.75" font-family="Helvetica,sans-Serif" font-size="10.00">vector.h</text>
</a>
</g>
</g>
<!-- Node2&#45;&gt;Node4 -->
<g id="edge3_Node000002_Node000004" class="edge">
<title>Node2&#45;&gt;Node4</title>
<g id="a_edge3_Node000002_Node000004"><a xlink:title=" ">
<path fill="none" stroke="#63b8ff" d="M101.04,-44.21C103.42,-35.77 106.08,-26.33 107.97,-19.61"/>
<polygon fill="#63b8ff" stroke="#63b8ff" points="97.73,-43.05 98.39,-53.63 104.47,-44.95 97.73,-43.05"/>
</a>
</g>
</g>
</g>
</svg>
