<?xml version="1.0" encoding="UTF-8" standalone="no"?>
<!DOCTYPE svg PUBLIC "-//W3C//DTD SVG 1.1//EN"
 "http://www.w3.org/Graphics/SVG/1.1/DTD/svg11.dtd">
<!-- Generated by graphviz version 12.2.1 (0)
 -->
<!-- Title: concepts.h Pages: 1 -->
<svg width="348pt" height="193pt"
 viewBox="0.00 0.00 347.75 193.00" xmlns="http://www.w3.org/2000/svg" xmlns:xlink="http://www.w3.org/1999/xlink">
<g id="graph0" class="graph" transform="scale(1 1) rotate(0) translate(4 189)">
<title>concepts.h</title>
<!-- Node1 -->
<g id="Node000001" class="node">
<title>Node1</title>
<g id="a_Node000001"><a xlink:title=" ">
<polygon fill="#999999" stroke="#666666" points="243.5,-185 180.25,-185 180.25,-165.75 243.5,-165.75 243.5,-185"/>
<text text-anchor="middle" x="211.88" y="-171.5" font-family="Helvetica,sans-Serif" font-size="10.00">concepts.h</text>
</a>
</g>
</g>
<!-- Node2 -->
<g id="Node000002" class="node">
<title>Node2</title>
<g id="a_Node000002"><a xlink:href="algo__base_8h.html" target="_top" xlink:title=" ">
<polygon fill="white" stroke="#666666" points="339.75,-74.5 272,-74.5 272,-55.25 339.75,-55.25 339.75,-74.5"/>
<text text-anchor="middle" x="305.88" y="-61" font-family="Helvetica,sans-Serif" font-size="10.00">algo_base.h</text>
</a>
</g>
</g>
<!-- Node1&#45;&gt;Node2 -->
<g id="edge1_Node000001_Node000002" class="edge">
<title>Node1&#45;&gt;Node2</title>
<g id="a_edge1_Node000001_Node000002"><a xlink:title=" ">
<path fill="none" stroke="#63b8ff" d="M227,-156.91C247.27,-133.52 282.49,-92.86 298.08,-74.88"/>
<polygon fill="#63b8ff" stroke="#63b8ff" points="224.46,-154.5 220.56,-164.35 229.75,-159.09 224.46,-154.5"/>
</a>
</g>
</g>
<!-- Node5 -->
<g id="Node000005" class="node">
<title>Node5</title>
<g id="a_Node000005"><a xlink:href="iterators_8h.html" target="_top" xlink:title=" ">
<polygon fill="white" stroke="#666666" points="213.25,-129.75 154.5,-129.75 154.5,-110.5 213.25,-110.5 213.25,-129.75"/>
<text text-anchor="middle" x="183.88" y="-116.25" font-family="Helvetica,sans-Serif" font-size="10.00">iterators.h</text>
</a>
</g>
</g>
<!-- Node1&#45;&gt;Node5 -->
<g id="edge4_Node000001_Node000005" class="edge">
<title>Node1&#45;&gt;Node5</title>
<g id="a_edge4_Node000001_Node000005"><a xlink:title=" ">
<path fill="none" stroke="#63b8ff" d="M201.99,-155.58C197.44,-146.92 192.25,-137.06 188.6,-130.11"/>
<polygon fill="#63b8ff" stroke="#63b8ff" points="198.8,-157.02 206.55,-164.24 204.99,-153.76 198.8,-157.02"/>
</a>
</g>
</g>
<!-- Node3 -->
<g id="Node000003" class="node">
<title>Node3</title>
<g id="a_Node000003"><a xlink:href="linked__list_8h.html" target="_top" xlink:title=" ">
<polygon fill="white" stroke="#666666" points="250.38,-19.25 183.38,-19.25 183.38,0 250.38,0 250.38,-19.25"/>
<text text-anchor="middle" x="216.88" y="-5.75" font-family="Helvetica,sans-Serif" font-size="10.00">linked_list.h</text>
</a>
</g>
</g>
<!-- Node2&#45;&gt;Node3 -->
<g id="edge2_Node000002_Node000003" class="edge">
<title>Node2&#45;&gt;Node3</title>
<g id="a_edge2_Node000002_Node000003"><a xlink:title=" ">
<path fill="none" stroke="#63b8ff" d="M281.14,-49.07C265.39,-39.65 245.5,-27.75 232.05,-19.7"/>
<polygon fill="#63b8ff" stroke="#63b8ff" points="279.1,-51.93 289.48,-54.06 282.69,-45.93 279.1,-51.93"/>
</a>
</g>
</g>
<!-- Node4 -->
<g id="Node000004" class="node">
<title>Node4</title>
<g id="a_Node000004"><a xlink:href="vector_8h.html" target="_top" xlink:title=" ">
<polygon fill="white" stroke="#666666" points="139.12,-19.25 88.62,-19.25 88.62,0 139.12,0 139.12,-19.25"/>
<text text-anchor="middle" x="113.88" y="-5.75" font-family="Helvetica,sans-Serif" font-size="10.00">vector.h</text>
</a>
</g>
</g>
<!-- Node2&#45;&gt;Node4 -->
<g id="edge3_Node000002_Node000004" class="edge">
<title>Node2&#45;&gt;Node4</title>
<g id="a_edge3_Node000002_Node000004"><a xlink:title=" ">
<path fill="none" stroke="#63b8ff" d="M262.59,-51.87C224.71,-41.36 170.96,-26.46 139.52,-17.74"/>
<polygon fill="#63b8ff" stroke="#63b8ff" points="261.27,-55.14 271.85,-54.44 263.15,-48.39 261.27,-55.14"/>
</a>
</g>
</g>
<!-- Node5&#45;&gt;Node2 -->
<g id="edge5_Node000005_Node000002" class="edge">
<title>Node5&#45;&gt;Node2</title>
<g id="a_edge5_Node000005_Node000002"><a xlink:title=" ">
<path fill="none" stroke="#63b8ff" d="M215.04,-105.52C237.02,-95.93 265.85,-83.34 285.08,-74.95"/>
<polygon fill="#63b8ff" stroke="#63b8ff" points="213.72,-102.28 205.96,-109.49 216.52,-108.69 213.72,-102.28"/>
</a>
</g>
</g>
<!-- Node5&#45;&gt;Node3 -->
<g id="edge6_Node000005_Node000003" class="edge">
<title>Node5&#45;&gt;Node3</title>
<g id="a_edge6_Node000005_Node000003"><a xlink:title=" ">
<path fill="none" stroke="#63b8ff" d="M174.22,-100C169.02,-86.99 164.8,-69.6 170.88,-55.25 177.29,-40.08 191.66,-27.54 202.65,-19.65"/>
<polygon fill="#63b8ff" stroke="#63b8ff" points="170.86,-101.07 178.18,-108.74 177.24,-98.18 170.86,-101.07"/>
</a>
</g>
</g>
<!-- Node5&#45;&gt;Node4 -->
<g id="edge9_Node000005_Node000004" class="edge">
<title>Node5&#45;&gt;Node4</title>
<g id="a_edge9_Node000005_Node000004"><a xlink:title=" ">
<path fill="none" stroke="#63b8ff" d="M172,-100.72C156.82,-77.19 131.13,-37.37 119.68,-19.63"/>
<polygon fill="#63b8ff" stroke="#63b8ff" points="168.96,-102.47 177.33,-108.97 174.85,-98.67 168.96,-102.47"/>
</a>
</g>
</g>
<!-- Node6 -->
<g id="Node000006" class="node">
<title>Node6</title>
<g id="a_Node000006"><a xlink:href="llist__iterator_8h.html" target="_top" xlink:title=" ">
<polygon fill="white" stroke="#666666" points="253.75,-74.5 180,-74.5 180,-55.25 253.75,-55.25 253.75,-74.5"/>
<text text-anchor="middle" x="216.88" y="-61" font-family="Helvetica,sans-Serif" font-size="10.00">llist_iterator.h</text>
</a>
</g>
</g>
<!-- Node5&#45;&gt;Node6 -->
<g id="edge7_Node000005_Node000006" class="edge">
<title>Node5&#45;&gt;Node6</title>
<g id="a_edge7_Node000005_Node000006"><a xlink:title=" ">
<path fill="none" stroke="#63b8ff" d="M195.35,-100.62C200.75,-91.89 206.95,-81.89 211.31,-74.86"/>
<polygon fill="#63b8ff" stroke="#63b8ff" points="192.41,-98.7 190.12,-109.05 198.36,-102.39 192.41,-98.7"/>
</a>
</g>
</g>
<!-- Node7 -->
<g id="Node000007" class="node">
<title>Node7</title>
<g id="a_Node000007"><a xlink:href="vector__iterator_8h.html" target="_top" xlink:title=" ">
<polygon fill="white" stroke="#666666" points="85.75,-74.5 0,-74.5 0,-55.25 85.75,-55.25 85.75,-74.5"/>
<text text-anchor="middle" x="42.88" y="-61" font-family="Helvetica,sans-Serif" font-size="10.00">vector_iterator.h</text>
</a>
</g>
</g>
<!-- Node5&#45;&gt;Node7 -->
<g id="edge10_Node000005_Node000007" class="edge">
<title>Node5&#45;&gt;Node7</title>
<g id="a_edge10_Node000005_Node000007"><a xlink:title=" ">
<path fill="none" stroke="#63b8ff" d="M149.24,-106.04C123.67,-96.39 89.54,-83.5 66.91,-74.95"/>
<polygon fill="#63b8ff" stroke="#63b8ff" points="147.95,-109.3 158.54,-109.56 150.42,-102.75 147.95,-109.3"/>
</a>
</g>
</g>
<!-- Node6&#45;&gt;Node3 -->
<g id="edge8_Node000006_Node000003" class="edge">
<title>Node6&#45;&gt;Node3</title>
<g id="a_edge8_Node000006_Node000003"><a xlink:title=" ">
<path fill="none" stroke="#63b8ff" d="M216.88,-43.63C216.88,-35.34 216.88,-26.17 216.88,-19.61"/>
<polygon fill="#63b8ff" stroke="#63b8ff" points="213.38,-43.57 216.88,-53.57 220.38,-43.57 213.38,-43.57"/>
</a>
</g>
</g>
<!-- Node7&#45;&gt;Node4 -->
<g id="edge11_Node000007_Node000004" class="edge">
<title>Node7&#45;&gt;Node4</title>
<g id="a_edge11_Node000007_Node000004"><a xlink:title=" ">
<path fill="none" stroke="#63b8ff" d="M64.12,-47.94C76.52,-38.64 91.7,-27.26 102.01,-19.52"/>
<polygon fill="#63b8ff" stroke="#63b8ff" points="62.03,-45.13 56.13,-53.93 66.23,-50.73 62.03,-45.13"/>
</a>
</g>
</g>
</g>
</svg>
