<?xml version="1.0" encoding="UTF-8" standalone="no"?>
<!DOCTYPE svg PUBLIC "-//W3C//DTD SVG 1.1//EN"
 "http://www.w3.org/Graphics/SVG/1.1/DTD/svg11.dtd">
<!-- Generated by graphviz version 12.2.1 (0)
 -->
<!-- Title: Graphical Class Hierarchy Pages: 1 -->
<svg width="282pt" height="384pt"
 viewBox="0.00 0.00 282.25 384.25" xmlns="http://www.w3.org/2000/svg" xmlns:xlink="http://www.w3.org/1999/xlink">
<g id="graph0" class="graph" transform="scale(1 1) rotate(0) translate(4 380.25)">
<title>Graphical Class Hierarchy</title>
<!-- Node0 -->
<g id="Node000000" class="node">
<title>Node0</title>
<g id="a_Node000000"><a xlink:href="structbmb_1_1integral__constant.html" target="_top" xlink:title=" ">
<polygon fill="white" stroke="#666666" points="113.5,-194.88 0,-194.88 0,-164.38 113.5,-164.38 113.5,-194.88"/>
<text text-anchor="start" x="8" y="-181.38" font-family="Helvetica,sans-Serif" font-size="10.00">bmb::integral_constant</text>
<text text-anchor="middle" x="56.75" y="-170.12" font-family="Helvetica,sans-Serif" font-size="10.00">&lt; false &gt;</text>
</a>
</g>
</g>
<!-- Node1 -->
<g id="Node000001" class="node">
<title>Node1</title>
<g id="a_Node000001"><a xlink:href="structbmb_1_1is__const_3_01const_01_t_01_4.html" target="_top" xlink:title=" ">
<polygon fill="white" stroke="#666666" points="274.25,-339.25 149.5,-339.25 149.5,-320 274.25,-320 274.25,-339.25"/>
<text text-anchor="middle" x="211.88" y="-325.75" font-family="Helvetica,sans-Serif" font-size="10.00">bmb::is_const&lt; const T &gt;</text>
</a>
</g>
</g>
<!-- Node0&#45;&gt;Node1 -->
<g id="edge1_Node000000_Node000001" class="edge">
<title>Node0&#45;&gt;Node1</title>
<g id="a_edge1_Node000000_Node000001"><a xlink:title=" ">
<path fill="none" stroke="#63b8ff" d="M74.57,-204.51C99.62,-241.45 144.36,-306.88 149.5,-310.62 154.46,-314.24 160.12,-317.18 165.95,-319.56"/>
<polygon fill="#63b8ff" stroke="#63b8ff" points="77.72,-202.92 69.22,-196.61 71.93,-206.85 77.72,-202.92"/>
</a>
</g>
</g>
<!-- Node3 -->
<g id="Node000003" class="node">
<title>Node3</title>
<g id="a_Node000003"><a xlink:href="structbmb_1_1is__lvalue__ref_3_01_t_01_6_01_4.html" target="_top" xlink:title=" ">
<polygon fill="white" stroke="#666666" points="258.88,-301.88 164.88,-301.88 164.88,-271.38 258.88,-271.38 258.88,-301.88"/>
<text text-anchor="start" x="172.88" y="-288.38" font-family="Helvetica,sans-Serif" font-size="10.00">bmb::is_lvalue_ref</text>
<text text-anchor="middle" x="211.88" y="-277.12" font-family="Helvetica,sans-Serif" font-size="10.00">&lt; T &amp; &gt;</text>
</a>
</g>
</g>
<!-- Node0&#45;&gt;Node3 -->
<g id="edge2_Node000000_Node000003" class="edge">
<title>Node0&#45;&gt;Node3</title>
<g id="a_edge2_Node000000_Node000003"><a xlink:title=" ">
<path fill="none" stroke="#63b8ff" d="M79.52,-203.58C97.01,-221.71 122.97,-246.21 149.5,-262.62 154.46,-265.7 159.88,-268.49 165.38,-271.01"/>
<polygon fill="#63b8ff" stroke="#63b8ff" points="82.1,-201.21 72.68,-196.35 77.01,-206.02 82.1,-201.21"/>
</a>
</g>
</g>
<!-- Node4 -->
<g id="Node000004" class="node">
<title>Node4</title>
<g id="a_Node000004"><a xlink:href="structbmb_1_1is__pointer_3_01_t_01_5_01_4.html" target="_top" xlink:title=" ">
<polygon fill="white" stroke="#666666" points="266.75,-253.25 157,-253.25 157,-234 266.75,-234 266.75,-253.25"/>
<text text-anchor="middle" x="211.88" y="-239.75" font-family="Helvetica,sans-Serif" font-size="10.00">bmb::is_pointer&lt; T * &gt;</text>
</a>
</g>
</g>
<!-- Node0&#45;&gt;Node4 -->
<g id="edge3_Node000000_Node000004" class="edge">
<title>Node0&#45;&gt;Node4</title>
<g id="a_edge3_Node000000_Node000004"><a xlink:title=" ">
<path fill="none" stroke="#63b8ff" d="M96.68,-200.39C112.77,-208.53 131.78,-217.59 149.5,-224.62 157.59,-227.84 166.44,-230.86 174.85,-233.5"/>
<polygon fill="#63b8ff" stroke="#63b8ff" points="98.4,-197.34 87.91,-195.89 95.21,-203.57 98.4,-197.34"/>
</a>
</g>
</g>
<!-- Node5 -->
<g id="Node000005" class="node">
<title>Node5</title>
<g id="a_Node000005"><a xlink:href="structbmb_1_1is__rvalue__ref_3_01_t_01_6_6_01_4.html" target="_top" xlink:title=" ">
<polygon fill="white" stroke="#666666" points="259.25,-215.88 164.5,-215.88 164.5,-185.38 259.25,-185.38 259.25,-215.88"/>
<text text-anchor="start" x="172.5" y="-202.38" font-family="Helvetica,sans-Serif" font-size="10.00">bmb::is_rvalue_ref</text>
<text text-anchor="middle" x="211.88" y="-191.12" font-family="Helvetica,sans-Serif" font-size="10.00">&lt; T &amp;&amp; &gt;</text>
</a>
</g>
</g>
<!-- Node0&#45;&gt;Node5 -->
<g id="edge4_Node000000_Node000005" class="edge">
<title>Node0&#45;&gt;Node5</title>
<g id="a_edge4_Node000000_Node000005"><a xlink:title=" ">
<path fill="none" stroke="#63b8ff" d="M124.93,-188.84C138.21,-190.66 151.87,-192.53 164.28,-194.23"/>
<polygon fill="#63b8ff" stroke="#63b8ff" points="125.78,-185.42 115.4,-187.53 124.83,-192.36 125.78,-185.42"/>
</a>
</g>
</g>
<!-- Node6 -->
<g id="Node000006" class="node">
<title>Node6</title>
<g id="a_Node000006"><a xlink:href="structbmb_1_1is__same_3_01_t_00_01_t_01_4.html" target="_top" xlink:title=" ">
<polygon fill="white" stroke="#666666" points="266.75,-376.25 157,-376.25 157,-357 266.75,-357 266.75,-376.25"/>
<text text-anchor="middle" x="211.88" y="-362.75" font-family="Helvetica,sans-Serif" font-size="10.00">bmb::is_same&lt; T, T &gt;</text>
</a>
</g>
</g>
<!-- Node0&#45;&gt;Node6 -->
<g id="edge5_Node000000_Node000006" class="edge">
<title>Node0&#45;&gt;Node6</title>
<g id="a_edge5_Node000000_Node000006"><a xlink:title=" ">
<path fill="none" stroke="#63b8ff" d="M76.33,-204.5C87.86,-220.58 102.53,-242.25 113.5,-262.62 133.15,-299.11 118.62,-321 149.5,-348.62 153.06,-351.81 157.15,-354.43 161.5,-356.59"/>
<polygon fill="#63b8ff" stroke="#63b8ff" points="79.21,-202.52 70.5,-196.49 73.55,-206.64 79.21,-202.52"/>
</a>
</g>
</g>
<!-- Node7 -->
<g id="Node000007" class="node">
<title>Node7</title>
<g id="a_Node000007"><a xlink:href="structbmb_1_1is__const.html" target="_top" xlink:title="is_const">
<polygon fill="white" stroke="#666666" points="261.12,-167.25 162.62,-167.25 162.62,-148 261.12,-148 261.12,-167.25"/>
<text text-anchor="middle" x="211.88" y="-153.75" font-family="Helvetica,sans-Serif" font-size="10.00">bmb::is_const&lt; T &gt;</text>
</a>
</g>
</g>
<!-- Node0&#45;&gt;Node7 -->
<g id="edge6_Node000000_Node000007" class="edge">
<title>Node0&#45;&gt;Node7</title>
<g id="a_edge6_Node000000_Node000007"><a xlink:title=" ">
<path fill="none" stroke="#63b8ff" d="M125.23,-169.93C137.71,-168.14 150.52,-166.3 162.3,-164.6"/>
<polygon fill="#63b8ff" stroke="#63b8ff" points="124.8,-166.46 115.4,-171.34 125.79,-173.38 124.8,-166.46"/>
</a>
</g>
</g>
<!-- Node8 -->
<g id="Node000008" class="node">
<title>Node8</title>
<g id="a_Node000008"><a xlink:href="structbmb_1_1is__lvalue__ref.html" target="_top" xlink:title="is_lvalue_ref">
<polygon fill="white" stroke="#666666" points="270.12,-130.25 153.62,-130.25 153.62,-111 270.12,-111 270.12,-130.25"/>
<text text-anchor="middle" x="211.88" y="-116.75" font-family="Helvetica,sans-Serif" font-size="10.00">bmb::is_lvalue_ref&lt; T &gt;</text>
</a>
</g>
</g>
<!-- Node0&#45;&gt;Node8 -->
<g id="edge7_Node000000_Node000008" class="edge">
<title>Node0&#45;&gt;Node8</title>
<g id="a_edge7_Node000000_Node000008"><a xlink:title=" ">
<path fill="none" stroke="#63b8ff" d="M100.23,-159.21C115.57,-152.22 133.14,-144.65 149.5,-138.62 157.21,-135.79 165.59,-133.08 173.61,-130.68"/>
<polygon fill="#63b8ff" stroke="#63b8ff" points="98.99,-155.92 91.38,-163.29 101.93,-162.28 98.99,-155.92"/>
</a>
</g>
</g>
<!-- Node9 -->
<g id="Node000009" class="node">
<title>Node9</title>
<g id="a_Node000009"><a xlink:href="structbmb_1_1is__pointer.html" target="_top" xlink:title="is_pointer">
<polygon fill="white" stroke="#666666" points="263.75,-93.25 160,-93.25 160,-74 263.75,-74 263.75,-93.25"/>
<text text-anchor="middle" x="211.88" y="-79.75" font-family="Helvetica,sans-Serif" font-size="10.00">bmb::is_pointer&lt; T &gt;</text>
</a>
</g>
</g>
<!-- Node0&#45;&gt;Node9 -->
<g id="edge8_Node000000_Node000009" class="edge">
<title>Node0&#45;&gt;Node9</title>
<g id="a_edge8_Node000000_Node000009"><a xlink:title=" ">
<path fill="none" stroke="#63b8ff" d="M80.03,-155.94C97.46,-138.66 123.1,-115.88 149.5,-101.62 155.27,-98.51 161.63,-95.88 168.02,-93.67"/>
<polygon fill="#63b8ff" stroke="#63b8ff" points="77.76,-153.26 73.23,-162.83 82.74,-158.17 77.76,-153.26"/>
</a>
</g>
</g>
<!-- Node10 -->
<g id="Node000010" class="node">
<title>Node10</title>
<g id="a_Node000010"><a xlink:href="structbmb_1_1is__rvalue__ref.html" target="_top" xlink:title="is_lvalue_ref">
<polygon fill="white" stroke="#666666" points="270.5,-56.25 153.25,-56.25 153.25,-37 270.5,-37 270.5,-56.25"/>
<text text-anchor="middle" x="211.88" y="-42.75" font-family="Helvetica,sans-Serif" font-size="10.00">bmb::is_rvalue_ref&lt; T &gt;</text>
</a>
</g>
</g>
<!-- Node0&#45;&gt;Node10 -->
<g id="edge9_Node000000_Node000010" class="edge">
<title>Node0&#45;&gt;Node10</title>
<g id="a_edge9_Node000000_Node000010"><a xlink:title=" ">
<path fill="none" stroke="#63b8ff" d="M71.71,-154.12C87.33,-127.91 115.02,-87.78 149.5,-64.62 154.2,-61.47 159.47,-58.85 164.88,-56.69"/>
<polygon fill="#63b8ff" stroke="#63b8ff" points="68.69,-152.35 66.71,-162.76 74.75,-155.86 68.69,-152.35"/>
</a>
</g>
</g>
<!-- Node11 -->
<g id="Node000011" class="node">
<title>Node11</title>
<g id="a_Node000011"><a xlink:href="structbmb_1_1is__same.html" target="_top" xlink:title="is_same">
<polygon fill="white" stroke="#666666" points="267.5,-19.25 156.25,-19.25 156.25,0 267.5,0 267.5,-19.25"/>
<text text-anchor="middle" x="211.88" y="-5.75" font-family="Helvetica,sans-Serif" font-size="10.00">bmb::is_same&lt; T, U &gt;</text>
</a>
</g>
</g>
<!-- Node0&#45;&gt;Node11 -->
<g id="edge10_Node000000_Node000011" class="edge">
<title>Node0&#45;&gt;Node11</title>
<g id="a_edge10_Node000000_Node000011"><a xlink:title=" ">
<path fill="none" stroke="#63b8ff" d="M66.62,-153.6C79.53,-119.62 106.72,-60.58 149.5,-27.62 153.63,-24.44 158.32,-21.82 163.21,-19.66"/>
<polygon fill="#63b8ff" stroke="#63b8ff" points="63.45,-152.08 63.3,-162.67 70.02,-154.48 63.45,-152.08"/>
</a>
</g>
</g>
<!-- Node2 -->
<g id="Node000002" class="node">
<title>Node2</title>
<g id="a_Node000002"><a xlink:href="structbmb_1_1integral__constant.html" target="_top" xlink:title=" ">
<polygon fill="white" stroke="#666666" points="113.5,-301.88 0,-301.88 0,-271.38 113.5,-271.38 113.5,-301.88"/>
<text text-anchor="start" x="8" y="-288.38" font-family="Helvetica,sans-Serif" font-size="10.00">bmb::integral_constant</text>
<text text-anchor="middle" x="56.75" y="-277.12" font-family="Helvetica,sans-Serif" font-size="10.00">&lt; true &gt;</text>
</a>
</g>
</g>
<!-- Node2&#45;&gt;Node1 -->
<g id="edge11_Node000002_Node000001" class="edge">
<title>Node2&#45;&gt;Node1</title>
<g id="a_edge11_Node000002_Node000001"><a xlink:title=" ">
<path fill="none" stroke="#63b8ff" d="M124.21,-305.29C141.66,-310.19 159.82,-315.29 174.99,-319.55"/>
<polygon fill="#63b8ff" stroke="#63b8ff" points="125.5,-302.01 114.92,-302.68 123.6,-308.75 125.5,-302.01"/>
</a>
</g>
</g>
<!-- Node2&#45;&gt;Node3 -->
<g id="edge12_Node000002_Node000003" class="edge">
<title>Node2&#45;&gt;Node3</title>
<g id="a_edge12_Node000002_Node000003"><a xlink:title=" ">
<path fill="none" stroke="#63b8ff" d="M125.04,-286.62C138.46,-286.62 152.26,-286.62 164.77,-286.62"/>
<polygon fill="#63b8ff" stroke="#63b8ff" points="125.41,-283.13 115.41,-286.63 125.41,-290.13 125.41,-283.13"/>
</a>
</g>
</g>
<!-- Node2&#45;&gt;Node4 -->
<g id="edge13_Node000002_Node000004" class="edge">
<title>Node2&#45;&gt;Node4</title>
<g id="a_edge13_Node000002_Node000004"><a xlink:title=" ">
<path fill="none" stroke="#63b8ff" d="M124.21,-267.96C141.66,-263.06 159.82,-257.96 174.99,-253.7"/>
<polygon fill="#63b8ff" stroke="#63b8ff" points="123.6,-264.5 114.92,-270.57 125.5,-271.24 123.6,-264.5"/>
</a>
</g>
</g>
<!-- Node2&#45;&gt;Node5 -->
<g id="edge14_Node000002_Node000005" class="edge">
<title>Node2&#45;&gt;Node5</title>
<g id="a_edge14_Node000002_Node000005"><a xlink:title=" ">
<path fill="none" stroke="#63b8ff" d="M87.18,-264.28C104.69,-251.63 127.67,-236.09 149.5,-224.62 155.07,-221.7 161.08,-218.92 167.09,-216.37"/>
<polygon fill="#63b8ff" stroke="#63b8ff" points="85.28,-261.34 79.28,-270.07 89.42,-266.98 85.28,-261.34"/>
</a>
</g>
</g>
<!-- Node2&#45;&gt;Node6 -->
<g id="edge15_Node000002_Node000006" class="edge">
<title>Node2&#45;&gt;Node6</title>
<g id="a_edge15_Node000002_Node000006"><a xlink:title=" ">
<path fill="none" stroke="#63b8ff" d="M86.14,-309.18C103.6,-322.18 126.9,-337.99 149.5,-348.62 155.93,-351.65 162.98,-354.29 169.94,-356.54"/>
<polygon fill="#63b8ff" stroke="#63b8ff" points="88.37,-306.48 78.29,-303.22 84.13,-312.06 88.37,-306.48"/>
</a>
</g>
</g>
</g>
</svg>
