<?xml version="1.0" encoding="UTF-8" standalone="no"?>
<!DOCTYPE svg PUBLIC "-//W3C//DTD SVG 1.1//EN"
 "http://www.w3.org/Graphics/SVG/1.1/DTD/svg11.dtd">
<!-- Generated by graphviz version 12.2.1 (0)
 -->
<!-- Title: bmb::is_rvalue_ref&lt; T &amp;&amp; &gt; Pages: 1 -->
<svg width="142pt" height="94pt"
 viewBox="0.00 0.00 142.00 93.75" xmlns="http://www.w3.org/2000/svg" xmlns:xlink="http://www.w3.org/1999/xlink">
<g id="graph0" class="graph" transform="scale(1 1) rotate(0) translate(4 89.75)">
<title>bmb::is_rvalue_ref&lt; T &amp;&amp; &gt;</title>
<!-- Node1 -->
<g id="Node000001" class="node">
<title>Node1</title>
<g id="a_Node000001"><a xlink:title=" ">
<polygon fill="#999999" stroke="#666666" points="115.5,-30.5 20.75,-30.5 20.75,0 115.5,0 115.5,-30.5"/>
<text text-anchor="start" x="28.75" y="-17" font-family="Helvetica,sans-Serif" font-size="10.00">bmb::is_rvalue_ref</text>
<text text-anchor="middle" x="68.12" y="-5.75" font-family="Helvetica,sans-Serif" font-size="10.00">&lt; T &amp;&amp; &gt;</text>
</a>
</g>
</g>
<!-- Node2 -->
<g id="Node000002" class="node">
<title>Node2</title>
<g id="a_Node000002"><a xlink:href="structbmb_1_1integral__constant.html" target="_top" xlink:title=" ">
<polygon fill="white" stroke="#666666" points="60.25,-85.75 0,-85.75 0,-66.5 60.25,-66.5 60.25,-85.75"/>
<text text-anchor="middle" x="30.12" y="-72.25" font-family="Helvetica,sans-Serif" font-size="10.00">false_type</text>
</a>
</g>
</g>
<!-- Node2&#45;&gt;Node1 -->
<g id="edge1_Node000001_Node000002" class="edge">
<title>Node2&#45;&gt;Node1</title>
<g id="a_edge1_Node000001_Node000002"><a xlink:title=" ">
<path fill="none" stroke="#63b8ff" d="M42.08,-56.6C47.46,-48.27 53.71,-38.58 58.75,-30.78"/>
<polygon fill="#63b8ff" stroke="#63b8ff" points="39.2,-54.61 36.72,-64.91 45.08,-58.41 39.2,-54.61"/>
</a>
</g>
</g>
<!-- Node3 -->
<g id="Node000003" class="node">
<title>Node3</title>
<g id="a_Node000003"><a xlink:href="structbmb_1_1integral__constant.html" target="_top" xlink:title=" ">
<polygon fill="white" stroke="#666666" points="134,-85.75 78.25,-85.75 78.25,-66.5 134,-66.5 134,-85.75"/>
<text text-anchor="middle" x="106.12" y="-72.25" font-family="Helvetica,sans-Serif" font-size="10.00">true_type</text>
</a>
</g>
</g>
<!-- Node3&#45;&gt;Node1 -->
<g id="edge2_Node000001_Node000003" class="edge">
<title>Node3&#45;&gt;Node1</title>
<g id="a_edge2_Node000001_Node000003"><a xlink:title=" ">
<path fill="none" stroke="#63b8ff" d="M94.17,-56.6C88.79,-48.27 82.54,-38.58 77.5,-30.78"/>
<polygon fill="#63b8ff" stroke="#63b8ff" points="91.17,-58.41 99.53,-64.91 97.05,-54.61 91.17,-58.41"/>
</a>
</g>
</g>
</g>
</svg>
