<?xml version="1.0" encoding="UTF-8" standalone="no"?>
<!DOCTYPE svg PUBLIC "-//W3C//DTD SVG 1.1//EN"
 "http://www.w3.org/Graphics/SVG/1.1/DTD/svg11.dtd">
<!-- Generated by graphviz version 12.2.1 (0)
 -->
<!-- Title: type_traits.h Pages: 1 -->
<svg width="541pt" height="248pt"
 viewBox="0.00 0.00 540.64 248.25" xmlns="http://www.w3.org/2000/svg" xmlns:xlink="http://www.w3.org/1999/xlink">
<g id="graph0" class="graph" transform="scale(1 1) rotate(0) translate(4 244.25)">
<title>type_traits.h</title>
<!-- Node1 -->
<g id="Node000001" class="node">
<title>Node1</title>
<g id="a_Node000001"><a xlink:title=" ">
<polygon fill="#999999" stroke="#666666" points="270.73,-240.25 202.23,-240.25 202.23,-221 270.73,-221 270.73,-240.25"/>
<text text-anchor="middle" x="236.48" y="-226.75" font-family="Helvetica,sans-Serif" font-size="10.00">type_traits.h</text>
</a>
</g>
</g>
<!-- Node2 -->
<g id="Node000002" class="node">
<title>Node2</title>
<g id="a_Node000002"><a xlink:href="concepts_8h.html" target="_top" xlink:title=" ">
<polygon fill="white" stroke="#666666" points="208.11,-185 144.86,-185 144.86,-165.75 208.11,-165.75 208.11,-185"/>
<text text-anchor="middle" x="176.48" y="-171.5" font-family="Helvetica,sans-Serif" font-size="10.00">concepts.h</text>
</a>
</g>
</g>
<!-- Node1&#45;&gt;Node2 -->
<g id="edge1_Node000001_Node000002" class="edge">
<title>Node1&#45;&gt;Node2</title>
<g id="a_edge1_Node000001_Node000002"><a xlink:title=" ">
<path fill="none" stroke="#63b8ff" d="M217.9,-213.14C207.55,-203.94 195.05,-192.85 186.51,-185.27"/>
<polygon fill="#63b8ff" stroke="#63b8ff" points="215.37,-215.57 225.17,-219.59 220.02,-210.33 215.37,-215.57"/>
</a>
</g>
</g>
<!-- Node4 -->
<g id="Node000004" class="node">
<title>Node4</title>
<g id="a_Node000004"><a xlink:href="linked__list_8h.html" target="_top" xlink:title=" ">
<polygon fill="white" stroke="#666666" points="437.98,-19.25 370.98,-19.25 370.98,0 437.98,0 437.98,-19.25"/>
<text text-anchor="middle" x="404.48" y="-5.75" font-family="Helvetica,sans-Serif" font-size="10.00">linked_list.h</text>
</a>
</g>
</g>
<!-- Node1&#45;&gt;Node4 -->
<g id="edge14_Node000001_Node000004" class="edge">
<title>Node1&#45;&gt;Node4</title>
<g id="a_edge14_Node000001_Node000004"><a xlink:title=" ">
<path fill="none" stroke="#63b8ff" d="M282.23,-224.13C356.08,-212.33 496.7,-176.71 530.48,-74.5 543.95,-33.75 480.13,-18.86 438.39,-13.52"/>
<polygon fill="#63b8ff" stroke="#63b8ff" points="281.84,-220.65 272.48,-225.6 282.89,-227.57 281.84,-220.65"/>
</a>
</g>
</g>
<!-- Node5 -->
<g id="Node000005" class="node">
<title>Node5</title>
<g id="a_Node000005"><a xlink:href="vector_8h.html" target="_top" xlink:title=" ">
<polygon fill="white" stroke="#666666" points="206.73,-19.25 156.23,-19.25 156.23,0 206.73,0 206.73,-19.25"/>
<text text-anchor="middle" x="181.48" y="-5.75" font-family="Helvetica,sans-Serif" font-size="10.00">vector.h</text>
</a>
</g>
</g>
<!-- Node1&#45;&gt;Node5 -->
<g id="edge26_Node000001_Node000005" class="edge">
<title>Node1&#45;&gt;Node5</title>
<g id="a_edge26_Node000001_Node000005"><a xlink:title=" ">
<path fill="none" stroke="#63b8ff" d="M190.72,-218.25C166.57,-211 137.13,-200.08 113.48,-185 55.06,-147.73 29.93,-138.55 3.48,-74.5 -21.58,-13.81 101.16,-8.96 156.06,-9.74"/>
<polygon fill="#63b8ff" stroke="#63b8ff" points="189.72,-221.61 200.3,-221.01 191.66,-214.88 189.72,-221.61"/>
</a>
</g>
</g>
<!-- Node6 -->
<g id="Node000006" class="node">
<title>Node6</title>
<g id="a_Node000006"><a xlink:href="iterators_8h.html" target="_top" xlink:title=" ">
<polygon fill="white" stroke="#666666" points="254.86,-129.75 196.11,-129.75 196.11,-110.5 254.86,-110.5 254.86,-129.75"/>
<text text-anchor="middle" x="225.48" y="-116.25" font-family="Helvetica,sans-Serif" font-size="10.00">iterators.h</text>
</a>
</g>
</g>
<!-- Node1&#45;&gt;Node6 -->
<g id="edge13_Node000001_Node000006" class="edge">
<title>Node1&#45;&gt;Node6</title>
<g id="a_edge13_Node000001_Node000006"><a xlink:title=" ">
<path fill="none" stroke="#63b8ff" d="M234.45,-209.6C232.05,-185.9 228.15,-147.47 226.4,-130.13"/>
<polygon fill="#63b8ff" stroke="#63b8ff" points="230.94,-209.64 235.43,-219.24 237.9,-208.94 230.94,-209.64"/>
</a>
</g>
</g>
<!-- Node7 -->
<g id="Node000007" class="node">
<title>Node7</title>
<g id="a_Node000007"><a xlink:href="llist__iterator_8h.html" target="_top" xlink:title=" ">
<polygon fill="white" stroke="#666666" points="506.36,-74.5 432.61,-74.5 432.61,-55.25 506.36,-55.25 506.36,-74.5"/>
<text text-anchor="middle" x="469.48" y="-61" font-family="Helvetica,sans-Serif" font-size="10.00">llist_iterator.h</text>
</a>
</g>
</g>
<!-- Node1&#45;&gt;Node7 -->
<g id="edge15_Node000001_Node000007" class="edge">
<title>Node1&#45;&gt;Node7</title>
<g id="a_edge15_Node000001_Node000007"><a xlink:title=" ">
<path fill="none" stroke="#63b8ff" d="M282.26,-220.69C331.11,-208.69 407.04,-182.45 448.48,-129.75 461.62,-113.05 466.69,-87.81 468.53,-74.61"/>
<polygon fill="#63b8ff" stroke="#63b8ff" points="281.48,-217.28 272.54,-222.97 283.07,-224.1 281.48,-217.28"/>
</a>
</g>
</g>
<!-- Node8 -->
<g id="Node000008" class="node">
<title>Node8</title>
<g id="a_Node000008"><a xlink:href="vector__iterator_8h.html" target="_top" xlink:title=" ">
<polygon fill="white" stroke="#666666" points="98.36,-74.5 12.61,-74.5 12.61,-55.25 98.36,-55.25 98.36,-74.5"/>
<text text-anchor="middle" x="55.48" y="-61" font-family="Helvetica,sans-Serif" font-size="10.00">vector_iterator.h</text>
</a>
</g>
</g>
<!-- Node1&#45;&gt;Node8 -->
<g id="edge27_Node000001_Node000008" class="edge">
<title>Node1&#45;&gt;Node8</title>
<g id="a_edge27_Node000001_Node000008"><a xlink:title=" ">
<path fill="none" stroke="#63b8ff" d="M193.72,-216.83C174.5,-209.62 152.39,-199.17 135.48,-185 96.73,-152.51 69.13,-96.64 59.37,-74.9"/>
<polygon fill="#63b8ff" stroke="#63b8ff" points="192.33,-220.05 202.92,-220.09 194.67,-213.45 192.33,-220.05"/>
</a>
</g>
</g>
<!-- Node9 -->
<g id="Node000009" class="node">
<title>Node9</title>
<g id="a_Node000009"><a xlink:href="move_8h.html" target="_top" xlink:title=" ">
<polygon fill="white" stroke="#666666" points="350.23,-185 302.73,-185 302.73,-165.75 350.23,-165.75 350.23,-185"/>
<text text-anchor="middle" x="326.48" y="-171.5" font-family="Helvetica,sans-Serif" font-size="10.00">move.h</text>
</a>
</g>
</g>
<!-- Node1&#45;&gt;Node9 -->
<g id="edge16_Node000001_Node000009" class="edge">
<title>Node1&#45;&gt;Node9</title>
<g id="a_edge16_Node000001_Node000009"><a xlink:title=" ">
<path fill="none" stroke="#63b8ff" d="M261.5,-214.82C277.43,-205.4 297.54,-193.5 311.14,-185.45"/>
<polygon fill="#63b8ff" stroke="#63b8ff" points="259.88,-211.72 253.05,-219.82 263.44,-217.74 259.88,-211.72"/>
</a>
</g>
</g>
<!-- Node3 -->
<g id="Node000003" class="node">
<title>Node3</title>
<g id="a_Node000003"><a xlink:href="algo__base_8h.html" target="_top" xlink:title=" ">
<polygon fill="white" stroke="#666666" points="184.36,-74.5 116.61,-74.5 116.61,-55.25 184.36,-55.25 184.36,-74.5"/>
<text text-anchor="middle" x="150.48" y="-61" font-family="Helvetica,sans-Serif" font-size="10.00">algo_base.h</text>
</a>
</g>
</g>
<!-- Node2&#45;&gt;Node3 -->
<g id="edge2_Node000002_Node000003" class="edge">
<title>Node2&#45;&gt;Node3</title>
<g id="a_edge2_Node000002_Node000003"><a xlink:title=" ">
<path fill="none" stroke="#63b8ff" d="M171.69,-154.35C166.01,-130.65 156.8,-92.22 152.64,-74.88"/>
<polygon fill="#63b8ff" stroke="#63b8ff" points="168.27,-155.12 174,-164.02 175.08,-153.48 168.27,-155.12"/>
</a>
</g>
</g>
<!-- Node2&#45;&gt;Node6 -->
<g id="edge5_Node000002_Node000006" class="edge">
<title>Node2&#45;&gt;Node6</title>
<g id="a_edge5_Node000002_Node000006"><a xlink:title=" ">
<path fill="none" stroke="#63b8ff" d="M192.2,-157.29C200.52,-148.25 210.4,-137.52 217.22,-130.11"/>
<polygon fill="#63b8ff" stroke="#63b8ff" points="189.8,-154.74 185.6,-164.47 194.95,-159.48 189.8,-154.74"/>
</a>
</g>
</g>
<!-- Node3&#45;&gt;Node4 -->
<g id="edge3_Node000003_Node000004" class="edge">
<title>Node3&#45;&gt;Node4</title>
<g id="a_edge3_Node000003_Node000004"><a xlink:title=" ">
<path fill="none" stroke="#63b8ff" d="M195.91,-54.35C246.12,-43.83 325.82,-27.12 370.77,-17.69"/>
<polygon fill="#63b8ff" stroke="#63b8ff" points="195.29,-50.91 186.22,-56.38 196.73,-57.76 195.29,-50.91"/>
</a>
</g>
</g>
<!-- Node3&#45;&gt;Node5 -->
<g id="edge4_Node000003_Node000005" class="edge">
<title>Node3&#45;&gt;Node5</title>
<g id="a_edge4_Node000003_Node000005"><a xlink:title=" ">
<path fill="none" stroke="#63b8ff" d="M161.26,-45.37C166.34,-36.64 172.16,-26.64 176.25,-19.61"/>
<polygon fill="#63b8ff" stroke="#63b8ff" points="158.37,-43.37 156.36,-53.77 164.42,-46.89 158.37,-43.37"/>
</a>
</g>
</g>
<!-- Node6&#45;&gt;Node3 -->
<g id="edge6_Node000006_Node000003" class="edge">
<title>Node6&#45;&gt;Node3</title>
<g id="a_edge6_Node000006_Node000003"><a xlink:title=" ">
<path fill="none" stroke="#63b8ff" d="M203.49,-103.51C190.41,-94.22 174.28,-82.77 163.27,-74.95"/>
<polygon fill="#63b8ff" stroke="#63b8ff" points="201.35,-106.28 211.53,-109.22 205.4,-100.57 201.35,-106.28"/>
</a>
</g>
</g>
<!-- Node6&#45;&gt;Node4 -->
<g id="edge7_Node000006_Node000004" class="edge">
<title>Node6&#45;&gt;Node4</title>
<g id="a_edge7_Node000006_Node000004"><a xlink:title=" ">
<path fill="none" stroke="#63b8ff" d="M243.97,-102.7C260.03,-88.95 284.29,-69.36 307.48,-55.25 331.4,-40.7 360.85,-27.79 380.98,-19.65"/>
<polygon fill="#63b8ff" stroke="#63b8ff" points="241.93,-99.85 236.68,-109.05 246.52,-105.13 241.93,-99.85"/>
</a>
</g>
</g>
<!-- Node6&#45;&gt;Node5 -->
<g id="edge10_Node000006_Node000005" class="edge">
<title>Node6&#45;&gt;Node5</title>
<g id="a_edge10_Node000006_Node000005"><a xlink:title=" ">
<path fill="none" stroke="#63b8ff" d="M217.63,-99.76C208.04,-76.12 192.23,-37.13 185.13,-19.63"/>
<polygon fill="#63b8ff" stroke="#63b8ff" points="214.31,-100.89 221.31,-108.84 220.8,-98.26 214.31,-100.89"/>
</a>
</g>
</g>
<!-- Node6&#45;&gt;Node7 -->
<g id="edge8_Node000006_Node000007" class="edge">
<title>Node6&#45;&gt;Node7</title>
<g id="a_edge8_Node000006_Node000007"><a xlink:title=" ">
<path fill="none" stroke="#63b8ff" d="M266.04,-110.27C312.36,-100.16 387.54,-83.76 432.37,-73.97"/>
<polygon fill="#63b8ff" stroke="#63b8ff" points="265.42,-106.83 256.39,-112.38 266.91,-113.67 265.42,-106.83"/>
</a>
</g>
</g>
<!-- Node6&#45;&gt;Node8 -->
<g id="edge11_Node000006_Node000008" class="edge">
<title>Node6&#45;&gt;Node8</title>
<g id="a_edge11_Node000006_Node000008"><a xlink:title=" ">
<path fill="none" stroke="#63b8ff" d="M185.78,-106.69C154.75,-96.97 112.35,-83.69 84.46,-74.95"/>
<polygon fill="#63b8ff" stroke="#63b8ff" points="184.61,-109.99 195.2,-109.64 186.7,-103.31 184.61,-109.99"/>
</a>
</g>
</g>
<!-- Node7&#45;&gt;Node4 -->
<g id="edge9_Node000007_Node000004" class="edge">
<title>Node7&#45;&gt;Node4</title>
<g id="a_edge9_Node000007_Node000004"><a xlink:title=" ">
<path fill="none" stroke="#63b8ff" d="M449.7,-47.66C438.41,-38.42 424.69,-27.18 415.35,-19.52"/>
<polygon fill="#63b8ff" stroke="#63b8ff" points="447.33,-50.25 457.29,-53.88 451.77,-44.84 447.33,-50.25"/>
</a>
</g>
</g>
<!-- Node8&#45;&gt;Node5 -->
<g id="edge12_Node000008_Node000005" class="edge">
<title>Node8&#45;&gt;Node5</title>
<g id="a_edge12_Node000008_Node000005"><a xlink:title=" ">
<path fill="none" stroke="#63b8ff" d="M87.36,-50.4C110.1,-40.79 140.06,-28.13 160,-19.7"/>
<polygon fill="#63b8ff" stroke="#63b8ff" points="86.1,-47.14 78.25,-54.25 88.83,-53.58 86.1,-47.14"/>
</a>
</g>
</g>
<!-- Node9&#45;&gt;Node4 -->
<g id="edge21_Node000009_Node000004" class="edge">
<title>Node9&#45;&gt;Node4</title>
<g id="a_edge21_Node000009_Node000004"><a xlink:title=" ">
<path fill="none" stroke="#63b8ff" d="M361.73,-168.61C408.26,-158.78 487.54,-133.76 515.48,-74.5 531.7,-40.11 476.73,-23.16 438.43,-15.7"/>
<polygon fill="#63b8ff" stroke="#63b8ff" points="361.28,-165.13 352.14,-170.5 362.63,-172 361.28,-165.13"/>
</a>
</g>
</g>
<!-- Node9&#45;&gt;Node5 -->
<g id="edge25_Node000009_Node000005" class="edge">
<title>Node9&#45;&gt;Node5</title>
<g id="a_edge25_Node000009_Node000005"><a xlink:title=" ">
<path fill="none" stroke="#63b8ff" d="M311.07,-156.97C280.34,-122.26 212.38,-45.52 189.32,-19.47"/>
<polygon fill="#63b8ff" stroke="#63b8ff" points="308.43,-159.27 317.68,-164.44 313.68,-154.63 308.43,-159.27"/>
</a>
</g>
</g>
<!-- Node9&#45;&gt;Node6 -->
<g id="edge20_Node000009_Node000006" class="edge">
<title>Node9&#45;&gt;Node6</title>
<g id="a_edge20_Node000009_Node000006"><a xlink:title=" ">
<path fill="none" stroke="#63b8ff" d="M299.17,-159.98C281.18,-150.49 258.18,-138.36 242.7,-130.2"/>
<polygon fill="#63b8ff" stroke="#63b8ff" points="297.53,-163.07 308.01,-164.64 300.8,-156.88 297.53,-163.07"/>
</a>
</g>
</g>
<!-- Node10 -->
<g id="Node000010" class="node">
<title>Node10</title>
<g id="a_Node000010"><a xlink:href="allocator_8h.html" target="_top" xlink:title=" ">
<polygon fill="white" stroke="#666666" points="376.61,-74.5 316.36,-74.5 316.36,-55.25 376.61,-55.25 376.61,-74.5"/>
<text text-anchor="middle" x="346.48" y="-61" font-family="Helvetica,sans-Serif" font-size="10.00">allocator.h</text>
</a>
</g>
</g>
<!-- Node9&#45;&gt;Node10 -->
<g id="edge17_Node000009_Node000010" class="edge">
<title>Node9&#45;&gt;Node10</title>
<g id="a_edge17_Node000009_Node000010"><a xlink:title=" ">
<path fill="none" stroke="#63b8ff" d="M330.17,-154.35C334.54,-130.65 341.63,-92.22 344.82,-74.88"/>
<polygon fill="#63b8ff" stroke="#63b8ff" points="326.77,-153.54 328.39,-164.01 333.65,-154.81 326.77,-153.54"/>
</a>
</g>
</g>
<!-- Node11 -->
<g id="Node000011" class="node">
<title>Node11</title>
<g id="a_Node000011"><a xlink:href="llist__nodes_8h.html" target="_top" xlink:title=" ">
<polygon fill="white" stroke="#666666" points="439.48,-129.75 369.48,-129.75 369.48,-110.5 439.48,-110.5 439.48,-129.75"/>
<text text-anchor="middle" x="404.48" y="-116.25" font-family="Helvetica,sans-Serif" font-size="10.00">llist_nodes.h</text>
</a>
</g>
</g>
<!-- Node9&#45;&gt;Node11 -->
<g id="edge22_Node000009_Node000011" class="edge">
<title>Node9&#45;&gt;Node11</title>
<g id="a_edge22_Node000009_Node000011"><a xlink:title=" ">
<path fill="none" stroke="#63b8ff" d="M348.96,-159.03C362.63,-149.7 379.62,-138.1 391.19,-130.2"/>
<polygon fill="#63b8ff" stroke="#63b8ff" points="347.25,-155.96 340.97,-164.49 351.2,-161.74 347.25,-155.96"/>
</a>
</g>
</g>
<!-- Node10&#45;&gt;Node4 -->
<g id="edge18_Node000010_Node000004" class="edge">
<title>Node10&#45;&gt;Node4</title>
<g id="a_edge18_Node000010_Node000004"><a xlink:title=" ">
<path fill="none" stroke="#63b8ff" d="M364.75,-47.11C374.7,-37.97 386.62,-27.03 394.79,-19.52"/>
<polygon fill="#63b8ff" stroke="#63b8ff" points="362.44,-44.48 357.44,-53.82 367.17,-49.63 362.44,-44.48"/>
</a>
</g>
</g>
<!-- Node10&#45;&gt;Node5 -->
<g id="edge19_Node000010_Node000005" class="edge">
<title>Node10&#45;&gt;Node5</title>
<g id="a_edge19_Node000010_Node000005"><a xlink:title=" ">
<path fill="none" stroke="#63b8ff" d="M307.64,-51.34C276.63,-41.33 234.06,-27.59 207.16,-18.91"/>
<polygon fill="#63b8ff" stroke="#63b8ff" points="306.46,-54.64 317.05,-54.38 308.61,-47.97 306.46,-54.64"/>
</a>
</g>
</g>
<!-- Node11&#45;&gt;Node4 -->
<g id="edge23_Node000011_Node000004" class="edge">
<title>Node11&#45;&gt;Node4</title>
<g id="a_edge23_Node000011_Node000004"><a xlink:title=" ">
<path fill="none" stroke="#63b8ff" d="M404.48,-98.78C404.48,-75.05 404.48,-36.89 404.48,-19.63"/>
<polygon fill="#63b8ff" stroke="#63b8ff" points="400.98,-98.73 404.48,-108.73 407.98,-98.73 400.98,-98.73"/>
</a>
</g>
</g>
<!-- Node11&#45;&gt;Node7 -->
<g id="edge24_Node000011_Node000007" class="edge">
<title>Node11&#45;&gt;Node7</title>
<g id="a_edge24_Node000011_Node000007"><a xlink:title=" ">
<path fill="none" stroke="#63b8ff" d="M424.27,-102.91C435.56,-93.67 449.28,-82.43 458.62,-74.77"/>
<polygon fill="#63b8ff" stroke="#63b8ff" points="422.2,-100.09 416.68,-109.13 426.63,-105.5 422.2,-100.09"/>
</a>
</g>
</g>
</g>
</svg>
